<svg width="24" height="24" viewBox="0 0 24 24" fill="none" xmlns="http://www.w3.org/2000/svg">
<circle cx="12" cy="12" r="11.5" fill="black" stroke="white"/>
<path fill-rule="evenodd" clip-rule="evenodd" d="M8.23099 16.7998C8.13094 16.6998 8.08092 16.5724 8.08092 16.4178C8.08092 16.2632 8.13094 16.1359 8.23099 16.0358L13.4425 10.8243C13.2788 10.4423 13.256 10.0103 13.3743 9.52826C13.4925 9.04621 13.7517 8.6142 14.1519 8.2322C14.634 7.75016 15.1706 7.46822 15.7618 7.38636C16.353 7.3045 16.835 7.45003 17.2079 7.82293C17.5808 8.19582 17.7263 8.67786 17.6445 9.26905C17.5626 9.86023 17.2807 10.3968 16.7986 10.8789C16.4166 11.2791 15.9846 11.5383 15.5026 11.6565C15.0205 11.7747 14.5885 11.752 14.2065 11.5883L13.5244 12.2704L17.2897 16.0358C17.3898 16.1359 17.4398 16.2632 17.4398 16.4178C17.4398 16.5724 17.3898 16.6998 17.2897 16.7998C17.1806 16.909 17.0533 16.9635 16.9078 16.9635C16.7622 16.9635 16.6349 16.909 16.5258 16.7998L12.7604 13.0617L12.1454 13.6722L15.2981 16.8597C15.3982 16.9597 15.4482 17.0871 15.4482 17.2417C15.4482 17.3963 15.3982 17.5236 15.2981 17.6237C15.189 17.7328 15.0617 17.7874 14.9161 17.7874C14.7706 17.7874 14.6433 17.7328 14.5341 17.6237L11.367 14.445L8.99498 16.7998C8.88584 16.909 8.7585 16.9635 8.61298 16.9635C8.46746 16.9635 8.34013 16.909 8.23099 16.7998ZM8.27163 8.55953L11.3821 11.7246L12.1461 10.9333L9.03563 7.79554C8.92648 7.6864 8.79915 7.63183 8.65363 7.63183C8.50811 7.63183 8.38078 7.6864 8.27163 7.79554C8.17159 7.89559 8.12156 8.02292 8.12156 8.17754C8.12156 8.33215 8.17159 8.45949 8.27163 8.55953ZM6.89372 9.92387L10.0179 13.0889L10.7819 12.2976L7.65771 9.15988C7.54857 9.05074 7.42124 8.99617 7.27572 8.99617C7.13019 8.99617 7.00286 9.05074 6.89372 9.15988C6.79368 9.25993 6.74365 9.38726 6.74365 9.54187C6.74365 9.69649 6.79368 9.82382 6.89372 9.92387Z" fill="white"/>
</svg>
