<svg width="22" height="23" viewBox="0 0 22 23" fill="none" xmlns="http://www.w3.org/2000/svg">
<circle cx="11" cy="11.2622" r="10.5" fill="#FFB800" stroke="white"/>
<path d="M16.2106 14.2322L14.7569 13.7657L15.9022 10.8158L17.1503 13.2169C17.2874 13.4638 17.2286 13.7154 16.9741 13.9715C16.7196 14.2276 16.4651 14.3145 16.2106 14.2322ZM12.525 13.7108L13.1564 8.57937C13.1759 8.44216 13.2421 8.34831 13.3549 8.29782C13.4673 8.2477 13.6018 8.2455 13.7584 8.29124L15.2268 8.79889C15.3638 8.85377 15.4545 8.9361 15.4987 9.04586C15.5426 9.15562 15.54 9.27453 15.4911 9.40259L13.8318 13.7108H12.525ZM8.17858 13.7108L6.51932 9.40259C6.47037 9.27453 6.46802 9.15343 6.51227 9.03927C6.55613 8.92475 6.64658 8.84463 6.78363 8.79889L8.252 8.29124C8.38905 8.23636 8.51885 8.23398 8.64141 8.2841C8.76358 8.33459 8.83445 8.43301 8.85403 8.57937L9.47075 13.7108H8.17858ZM5.65298 14.2322C5.39846 14.3053 5.16842 14.2161 4.96285 13.9643C4.75727 13.713 4.72301 13.4638 4.86006 13.2169L6.12286 10.8158L7.25351 13.7657L5.65298 14.2322ZM10.3518 13.7108L9.64695 7.81102C9.62737 7.65553 9.67397 7.52509 9.78674 7.41972C9.89912 7.31471 10.0385 7.26221 10.2049 7.26221H11.7908C11.9572 7.26221 12.0966 7.31471 12.209 7.41972C12.3217 7.52509 12.3683 7.65553 12.3488 7.81102L11.6439 13.7108H10.3518Z" fill="white"/>
</svg>
