<svg width="24" height="24" viewBox="0 0 24 24" fill="none" xmlns="http://www.w3.org/2000/svg">
<circle cx="12" cy="12" r="11.5" fill="white" stroke="black"/>
<path fill-rule="evenodd" clip-rule="evenodd" d="M17.0854 9.43634C17.6858 8.83591 17.6858 7.30755 16.7442 6.36597L16.719 6.39115L16.7023 6.3661L7.4005 15.7418C7.29239 15.8499 7.23834 15.9874 7.23834 16.1545C7.23834 16.3216 7.29239 16.4592 7.4005 16.5673C7.51843 16.6852 7.65602 16.7442 7.81326 16.7442C7.9705 16.7442 8.10809 16.6852 8.22603 16.5673L12.2947 12.5281L16.3634 16.5673C16.4813 16.6852 16.6189 16.7442 16.7762 16.7442C16.9334 16.7442 17.071 16.6852 17.1889 16.5673C17.297 16.4592 17.3511 16.3216 17.3511 16.1545C17.3511 15.9874 17.297 15.8499 17.1889 15.7418L13.1202 11.6731L14.1302 10.6024L15.0096 11.5121L17.0854 9.43634ZM7.44464 7.66349L10.8057 11.0835L11.6312 10.2285L8.27017 6.83796C8.15224 6.72002 8.01465 6.66106 7.85741 6.66106C7.70016 6.66106 7.56257 6.72002 7.44464 6.83796C7.33654 6.94606 7.28248 7.08365 7.28248 7.25072C7.28248 7.41779 7.33654 7.55538 7.44464 7.66349ZM5.95561 9.13769L9.3315 12.5577L10.157 11.7027L6.78115 8.31216C6.66321 8.19423 6.52562 8.13526 6.36838 8.13526C6.21114 8.13526 6.07355 8.19423 5.95561 8.31216C5.84751 8.42026 5.79346 8.55785 5.79346 8.72492C5.79346 8.892 5.84751 9.02958 5.95561 9.13769Z" fill="black"/>
</svg>
