<svg width="24" height="24" viewBox="0 0 24 24" fill="none" xmlns="http://www.w3.org/2000/svg">
<circle cx="12" cy="12" r="11.5" fill="black" stroke="white"/>
<path fill-rule="evenodd" clip-rule="evenodd" d="M17.0756 10.0663C17.6415 9.50036 17.6415 8.05983 16.754 7.17236L16.7303 7.1961L16.7145 7.17249L7.9473 16.0093C7.8454 16.1112 7.79446 16.2409 7.79446 16.3984C7.79446 16.5558 7.8454 16.6855 7.9473 16.7874C8.05845 16.8986 8.18813 16.9541 8.33634 16.9541C8.48455 16.9541 8.61423 16.8986 8.72538 16.7874L12.5602 12.9803L16.3951 16.7874C16.5063 16.8986 16.6359 16.9541 16.7841 16.9541C16.9324 16.9541 17.062 16.8986 17.1732 16.7874C17.2751 16.6855 17.326 16.5558 17.326 16.3984C17.326 16.2409 17.2751 16.1112 17.1732 16.0093L13.3383 12.1744L14.2902 11.1654L15.1191 12.0228L17.0756 10.0663ZM7.9889 8.39531L11.1568 11.6188L11.9349 10.8129L8.76699 7.61723C8.65584 7.50607 8.52615 7.45049 8.37795 7.45049C8.22974 7.45049 8.10006 7.50607 7.9889 7.61723C7.88701 7.71912 7.83607 7.8488 7.83607 8.00627C7.83607 8.16374 7.88701 8.29342 7.9889 8.39531ZM6.58546 9.78479L9.76732 13.0082L10.5454 12.2024L7.36354 9.00671C7.25239 8.89555 7.12271 8.83997 6.9745 8.83997C6.82629 8.83997 6.69661 8.89555 6.58546 9.00671C6.48356 9.1086 6.43262 9.23828 6.43262 9.39575C6.43262 9.55322 6.48356 9.6829 6.58546 9.78479Z" fill="white"/>
</svg>
