<svg width="24" height="24" viewBox="0 0 24 24" fill="none" xmlns="http://www.w3.org/2000/svg">
<circle cx="12" cy="12" r="11.5" fill="white" stroke="black"/>
<g clip-path="url(#clip0_4132_5689)">
<path fill-rule="evenodd" clip-rule="evenodd" d="M15.3499 12.2497L17.4398 10.9957C16.9273 10.3213 16.2787 9.74622 15.5216 9.31393L14.9417 9.02141L14.0685 11.2045L13.8176 11.0779C13.6254 10.9966 13.4287 10.9304 13.2292 10.8793L14.0978 8.70788C12.8578 8.34737 11.5418 8.34737 10.3018 8.70788L11.1704 10.8792C10.9708 10.9304 10.7741 10.9966 10.5819 11.0779L10.3311 11.2044L9.4579 9.0214L8.87799 9.31393C8.21174 9.69433 7.62959 10.1853 7.15015 10.7572L9.1706 12.1042C8.97237 12.3311 8.80124 12.58 8.66051 12.8458L6.62159 11.4865C6.08756 12.3446 5.75646 13.3297 5.6748 14.3678H10.9435L10.9435 14.3678L13.5689 14.3678H18.7248C18.6514 13.4342 18.3762 12.5434 17.933 11.7494L15.8235 13.0151C15.6956 12.7425 15.5367 12.4856 15.3499 12.2497Z" fill="black"/>
</g>
<defs>
<clipPath id="clip0_4132_5689">
<rect width="17.4" height="17.4" fill="white" transform="translate(3.5 3)"/>
</clipPath>
</defs>
</svg>
