<svg width="24" height="24" viewBox="0 0 24 24" fill="none" xmlns="http://www.w3.org/2000/svg">
<circle cx="12" cy="12" r="11.5" fill="black" stroke="white"/>
<g clip-path="url(#clip0_4132_5688)">
<path d="M9.5135 16.5163C7.49551 15.7217 6.0835 13.9095 6.0835 11.8H17.5168C17.5168 13.9095 16.1048 15.7217 14.0868 16.5163V17.5167H9.5135V16.5163Z" fill="white"/>
<path d="M16.3799 7.49483L11.9395 15.0378L13.0893 15.6749L17.4982 8.14045C17.5904 7.9807 17.614 7.81683 17.569 7.64884C17.524 7.48085 17.4216 7.35074 17.2619 7.25851C17.1154 7.17396 16.953 7.1556 16.7745 7.20343C16.596 7.25126 16.4645 7.34839 16.3799 7.49483Z" fill="white"/>
<path d="M14.3792 6.32673L10.9063 12.4674L12.056 13.1046L15.4975 6.97235C15.5897 6.8126 15.6133 6.64873 15.5683 6.48074C15.5233 6.31275 15.4209 6.18264 15.2611 6.09041C15.1147 6.00586 14.9522 5.9875 14.7738 6.03533C14.5953 6.08316 14.4637 6.18029 14.3792 6.32673Z" fill="white"/>
<rect x="9" y="10.8" width="8" height="1" fill="black"/>
</g>
<defs>
<clipPath id="clip0_4132_5688">
<rect width="19.6" height="19.6" fill="white" transform="translate(2 2)"/>
</clipPath>
</defs>
</svg>
