<svg width="24" height="24" viewBox="0 0 24 24" fill="none" xmlns="http://www.w3.org/2000/svg">
<circle cx="12" cy="12" r="11.5" fill="black" stroke="white"/>
<g clip-path="url(#clip0_4132_5686)">
<path fill-rule="evenodd" clip-rule="evenodd" d="M15.1526 12.6977L17.1229 11.5155C16.6423 10.8888 16.0366 10.3541 15.3307 9.95106L14.8073 9.68704L13.9843 11.7446L13.7246 11.6137C13.5354 11.5336 13.3415 11.469 13.1448 11.42L13.9637 9.37263C12.8107 9.04246 11.589 9.04246 10.4359 9.37263L11.2548 11.42C11.0581 11.469 10.8642 11.5336 10.6749 11.6137L10.4153 11.7446L9.5923 9.68704L9.0689 9.95106C8.44868 10.3052 7.90579 10.761 7.45713 11.2915L9.36194 12.5614C9.162 12.787 8.99073 13.0361 8.85183 13.303L6.92855 12.0208C6.4332 12.8244 6.12607 13.7449 6.0498 14.7145H10.9691L13.5405 14.7145L13.5405 14.7145H18.3498C18.2813 13.8434 18.0264 13.0118 17.6161 12.2691L15.6262 13.4631C15.5002 13.1895 15.3411 12.9324 15.1526 12.6977Z" fill="white"/>
</g>
<defs>
<clipPath id="clip0_4132_5686">
<rect width="16.4" height="16.4" fill="white" transform="translate(4 4)"/>
</clipPath>
</defs>
</svg>
