<svg width="24" height="24" viewBox="0 0 24 24" fill="none" xmlns="http://www.w3.org/2000/svg">
<circle cx="12" cy="12" r="11.5" fill="white" stroke="black"/>
<path fill-rule="evenodd" clip-rule="evenodd" d="M7.48916 16.5805C7.38301 16.4743 7.32994 16.3392 7.32994 16.1752C7.32994 16.0111 7.38301 15.8761 7.48916 15.7699L13.0184 10.2406C12.8448 9.83532 12.8206 9.37696 12.9461 8.86553C13.0715 8.35409 13.3465 7.89574 13.7711 7.49045C14.2826 6.97902 14.8519 6.67988 15.4791 6.59303C16.1064 6.50618 16.6178 6.66058 17.0134 7.05621C17.4091 7.45185 17.5635 7.96328 17.4766 8.59051C17.3898 9.21774 17.0906 9.78707 16.5792 10.2985C16.1739 10.7231 15.7155 10.9981 15.2041 11.1236C14.6927 11.249 14.2343 11.2249 13.829 11.0512L13.1053 11.7749L17.1003 15.7699C17.2064 15.8761 17.2595 16.0111 17.2595 16.1752C17.2595 16.3392 17.2064 16.4743 17.1003 16.5805C16.9845 16.6963 16.8494 16.7542 16.695 16.7542C16.5406 16.7542 16.4055 16.6963 16.2897 16.5805L12.2947 12.6144L11.6422 13.2622L14.9872 16.644C15.0934 16.7501 15.1465 16.8852 15.1465 17.0493C15.1465 17.2133 15.0934 17.3484 14.9872 17.4546C14.8714 17.5704 14.7363 17.6283 14.5819 17.6283C14.4276 17.6283 14.2925 17.5704 14.1767 17.4546L10.8164 14.0821L8.29973 16.5805C8.18394 16.6963 8.04884 16.7542 7.89445 16.7542C7.74005 16.7542 7.60495 16.6963 7.48916 16.5805ZM7.53228 7.83774L10.8324 11.1958L11.643 10.3563L8.34286 7.02716C8.22706 6.91137 8.09197 6.85347 7.93757 6.85347C7.78318 6.85347 7.64808 6.91137 7.53228 7.02716C7.42614 7.13331 7.37306 7.2684 7.37306 7.43245C7.37306 7.59649 7.42614 7.73159 7.53228 7.83774ZM6.07035 9.28526L9.38508 12.6433L10.1957 11.8038L6.88093 8.47469C6.76513 8.35889 6.63004 8.301 6.47564 8.301C6.32124 8.301 6.18615 8.35889 6.07035 8.47469C5.96421 8.58084 5.91113 8.71593 5.91113 8.87998C5.91113 9.04402 5.96421 9.17912 6.07035 9.28526Z" fill="black"/>
</svg>
