<svg width="22" height="23" viewBox="0 0 22 23" fill="none" xmlns="http://www.w3.org/2000/svg">
<circle cx="11" cy="11.2622" r="10.5" fill="#0971F8" stroke="white"/>
<g clip-path="url(#clip0_2361_618)">
<path fill-rule="evenodd" clip-rule="evenodd" d="M12.0836 6.10425H7.86817L6.77785 9.88705H5.55566L7.189 16.4204H14.8112L16.4446 9.88705H15.2223L14.6993 8.07253C14.3633 6.90691 13.2966 6.10425 12.0836 6.10425ZM14.0891 9.88705L13.653 8.37411C13.4514 7.67474 12.8114 7.19314 12.0836 7.19314H8.68754L7.91107 9.88705H14.0891ZM12.6334 11.5204H13.7223V14.7871H12.6334V11.5204ZM11.5446 11.5204H10.4557V14.7871H11.5446V11.5204ZM8.27789 11.5204H9.36678V14.7871H8.27789V11.5204Z" fill="white"/>
</g>
<defs>
<clipPath id="clip0_2361_618">
<rect width="14" height="14" fill="white" transform="translate(4 4.26221)"/>
</clipPath>
</defs>
</svg>
