<svg width="22" height="23" viewBox="0 0 22 23" fill="none" xmlns="http://www.w3.org/2000/svg">
<circle cx="11" cy="11.8779" r="10.5" fill="#FF6B00" stroke="white"/>
<g clip-path="url(#clip0_2546_8978)">
<path fill-rule="evenodd" clip-rule="evenodd" d="M9.25179 10.5988C9.93149 10.3319 10.4185 9.61162 10.4185 8.765C10.4185 7.69111 9.63496 6.82056 8.66846 6.82056C7.70196 6.82056 6.91846 7.69111 6.91846 8.765C6.91846 9.61162 7.40543 10.3319 8.08512 10.5988L8.08512 16.9354H9.25179L9.25179 10.5988Z" fill="white"/>
<path fill-rule="evenodd" clip-rule="evenodd" d="M11.5825 9.32867V7.21313H12.3603V9.32867C12.3603 9.54344 12.5344 9.71756 12.7492 9.71756H12.9433V7.21313H13.721V9.71756H13.9147C14.1295 9.71756 14.3036 9.54344 14.3036 9.32867V7.21313H15.0814V9.32867C15.0814 9.97287 14.5593 10.4951 13.9151 10.4953L13.9151 16.9354H12.7484L12.7484 10.4953C12.1044 10.4949 11.5825 9.97275 11.5825 9.32867Z" fill="white"/>
</g>
<defs>
<clipPath id="clip0_2546_8978">
<rect width="14" height="14" fill="white" transform="translate(4 4.87793)"/>
</clipPath>
</defs>
</svg>
